<svg width="32" height="32" viewBox="0 0 32 32" fill="none" xmlns="http://www.w3.org/2000/svg">
<g opacity="0.3">
<path d="M18.888 20.5201C19.0587 20.5201 19.192 20.5708 19.288 20.6721C19.384 20.7681 19.432 20.8961 19.432 21.0561V22.0001H11.72V21.4641C11.72 21.3575 11.7413 21.2455 11.784 21.1281C11.8267 21.0055 11.8987 20.8961 12 20.8001L15.632 17.1601C15.936 16.8561 16.2107 16.5628 16.456 16.2801C16.7013 15.9975 16.9093 15.7175 17.08 15.4401C17.2507 15.1575 17.3813 14.8695 17.472 14.5761C17.568 14.2828 17.616 13.9735 17.616 13.6481C17.616 13.3281 17.5653 13.0481 17.464 12.8081C17.3627 12.5628 17.224 12.3601 17.048 12.2001C16.872 12.0401 16.664 11.9201 16.424 11.8401C16.184 11.7601 15.9253 11.7201 15.648 11.7201C15.3707 11.7201 15.1147 11.7601 14.88 11.8401C14.6507 11.9201 14.4453 12.0321 14.264 12.1761C14.0827 12.3201 13.9307 12.4908 13.808 12.6881C13.6853 12.8855 13.5973 13.0988 13.544 13.3281C13.4693 13.5308 13.3733 13.6668 13.256 13.7361C13.144 13.8055 12.9787 13.8215 12.76 13.7841L11.944 13.6401C12.0187 13.1068 12.1653 12.6375 12.384 12.2321C12.6027 11.8268 12.8773 11.4881 13.208 11.2161C13.5387 10.9388 13.9173 10.7308 14.344 10.5921C14.776 10.4535 15.24 10.3841 15.736 10.3841C16.2373 10.3841 16.6987 10.4588 17.12 10.6081C17.5467 10.7521 17.9147 10.9628 18.224 11.2401C18.5333 11.5175 18.776 11.8561 18.952 12.2561C19.128 12.6508 19.216 13.0988 19.216 13.6001C19.216 14.0268 19.152 14.4241 19.024 14.7921C18.9013 15.1548 18.7307 15.5015 18.512 15.8321C18.2987 16.1628 18.048 16.4855 17.76 16.8001C17.4773 17.1095 17.176 17.4241 16.856 17.7441L13.944 20.7201C14.168 20.6615 14.392 20.6135 14.616 20.5761C14.8453 20.5388 15.0613 20.5201 15.264 20.5201H18.888Z" fill="white"/>
<circle cx="16" cy="16.0001" r="15.5" stroke="white"/>
</g>
</svg>
