<svg width="32" height="32" viewBox="0 0 32 32" fill="none" xmlns="http://www.w3.org/2000/svg">
<path d="M11.992 13.64C12.072 13.1067 12.2213 12.6373 12.44 12.232C12.6587 11.8267 12.9333 11.488 13.264 11.216C13.5947 10.9387 13.9733 10.7307 14.4 10.592C14.832 10.4533 15.296 10.384 15.792 10.384C16.288 10.384 16.744 10.456 17.16 10.6C17.576 10.7387 17.9307 10.9387 18.224 11.2C18.5227 11.456 18.7547 11.7653 18.92 12.128C19.0853 12.4907 19.168 12.8907 19.168 13.328C19.168 13.696 19.1227 14.0213 19.032 14.304C18.9413 14.5867 18.8107 14.8347 18.64 15.048C18.4747 15.2613 18.272 15.4427 18.032 15.592C17.792 15.736 17.5227 15.856 17.224 15.952C17.9547 16.1547 18.504 16.4853 18.872 16.944C19.24 17.3973 19.424 17.9733 19.424 18.672C19.424 19.2107 19.3227 19.696 19.12 20.128C18.9173 20.5547 18.64 20.9173 18.288 21.216C17.936 21.5093 17.5253 21.736 17.056 21.896C16.592 22.0507 16.096 22.128 15.568 22.128C14.9653 22.128 14.448 22.056 14.016 21.912C13.584 21.7627 13.216 21.5573 12.912 21.296C12.608 21.0293 12.3547 20.712 12.152 20.344C11.9547 19.9707 11.7867 19.5627 11.648 19.12L12.328 18.832C12.504 18.7573 12.6747 18.736 12.84 18.768C13.0053 18.8 13.1253 18.8933 13.2 19.048C13.28 19.208 13.3707 19.3893 13.472 19.592C13.5787 19.7893 13.72 19.9787 13.896 20.16C14.072 20.336 14.2907 20.4853 14.552 20.608C14.8187 20.7307 15.152 20.792 15.552 20.792C15.936 20.792 16.272 20.7307 16.56 20.608C16.848 20.48 17.088 20.3173 17.28 20.12C17.472 19.9173 17.616 19.6933 17.712 19.448C17.808 19.2027 17.856 18.96 17.856 18.72C17.856 18.4213 17.8187 18.1467 17.744 17.896C17.6693 17.6453 17.5253 17.432 17.312 17.256C17.104 17.0747 16.8133 16.9333 16.44 16.832C16.0667 16.7307 15.5813 16.68 14.984 16.68V15.544C15.4747 15.5387 15.888 15.488 16.224 15.392C16.5653 15.296 16.84 15.1627 17.048 14.992C17.256 14.8213 17.4053 14.6187 17.496 14.384C17.592 14.1493 17.64 13.888 17.64 13.6C17.64 13.2853 17.592 13.0107 17.496 12.776C17.4 12.5413 17.264 12.3467 17.088 12.192C16.9173 12.032 16.712 11.9147 16.472 11.84C16.2373 11.76 15.9813 11.72 15.704 11.72C15.4267 11.72 15.1707 11.76 14.936 11.84C14.7013 11.92 14.4933 12.032 14.312 12.176C14.1307 12.32 13.9787 12.4907 13.856 12.688C13.7333 12.8853 13.6453 13.0987 13.592 13.328C13.5173 13.5307 13.4213 13.6667 13.304 13.736C13.192 13.8053 13.0293 13.8213 12.816 13.784L11.992 13.64Z" fill="white"/>
<circle cx="16" cy="16" r="15.5" stroke="white"/>
</svg>
